<?xml version="1.0" standalone="no"?>
<!DOCTYPE svg PUBLIC "-//W3C//DTD SVG 20010904//EN"
 "http://www.w3.org/TR/2001/REC-SVG-20010904/DTD/svg10.dtd">
<svg version="1.0" xmlns="http://www.w3.org/2000/svg"
 width="540.000000pt" height="540.000000pt" viewBox="0 0 540.000000 540.000000"
 preserveAspectRatio="xMidYMid meet">
<metadata>
Created by potrace 1.11, written by Peter Selinger 2001-2013
</metadata>
<g transform="translate(0.000000,540.000000) scale(0.100000,-0.100000)"
fill="#000000" stroke="none">
<path d="M1270 5130 c-95 -34 -234 -99 -265 -124 -19 -16 -18 -16 12 -2 30 15
31 15 29 -7 -2 -12 -12 -40 -23 -62 -21 -42 -49 -122 -57 -165 -3 -14 -9 -46
-14 -72 -7 -38 -7 -48 4 -48 19 0 32 -54 38 -166 3 -56 18 -171 33 -255 30
-169 31 -194 14 -353 -10 -101 -14 -113 -50 -167 -26 -38 -37 -66 -34 -79 4
-13 0 -20 -9 -20 -8 0 -24 -14 -37 -31 l-22 -30 -32 21 c-56 37 -148 81 -156
75 -5 -3 -11 2 -15 10 -3 8 -14 15 -24 15 -32 0 -72 109 -113 310 -12 58 -26
108 -31 111 -6 4 -10 56 -9 130 2 145 2 149 10 149 4 0 8 11 9 26 1 14 7 35
14 47 14 25 13 22 23 65 4 17 11 32 15 32 7 0 60 87 98 161 7 14 42 55 77 92
35 37 61 67 58 67 -3 0 3 8 14 18 10 9 12 13 3 8 -29 -18 -152 -151 -189 -206
-124 -179 -180 -363 -188 -615 -6 -172 14 -306 68 -463 150 -433 555 -917
1124 -1344 233 -175 535 -361 745 -461 100 -47 251 -107 270 -107 5 0 -87 96
-204 213 -451 452 -773 898 -1027 1422 -162 336 -262 633 -339 1010 -57 277
-45 484 33 618 36 61 121 136 198 175 80 40 60 41 -51 2z"/>
<path d="M869 4913 c-13 -16 -12 -17 4 -4 9 7 17 15 17 17 0 8 -8 3 -21 -13z"/>
<path d="M4299 4744 c30 -15 87 -58 126 -96 141 -133 205 -313 206 -581 1
-282 -72 -559 -227 -868 -56 -113 -146 -263 -185 -309 l-21 -25 4 26 c4 25
-11 49 -32 49 -5 0 -10 5 -10 12 0 6 -3 8 -7 5 -3 -4 -13 -1 -21 6 -13 10 -15
9 -9 -5 3 -10 3 -17 -2 -15 -5 1 -50 -53 -100 -120 -50 -67 -95 -124 -100
-127 -5 -3 -12 5 -15 19 -3 14 -33 83 -66 155 -60 130 -70 165 -49 158 12 -4
93 -146 132 -230 20 -43 37 -61 37 -39 0 16 -91 204 -178 366 -124 231 -343
597 -450 750 -122 176 -373 494 -390 496 -45 5 -51 4 -55 -13 -3 -10 -2 -16 3
-13 4 3 10 -5 13 -16 4 -16 2 -19 -10 -15 -13 5 -14 4 -3 -9 7 -8 17 -12 23
-8 5 3 7 1 4 -4 -4 -6 23 -48 60 -94 219 -277 406 -548 565 -819 87 -150 263
-480 255 -480 -2 0 -33 50 -67 111 -35 61 -73 123 -85 136 -20 24 -22 24 -38
9 -9 -10 -17 -15 -17 -11 0 16 -31 -26 -51 -71 -51 -107 -110 -144 -222 -139
-40 1 -92 8 -116 15 -25 6 -57 9 -72 6 -18 -3 -34 1 -49 14 -13 11 -27 17 -31
14 -5 -3 -9 0 -9 6 0 6 -11 15 -24 20 -15 5 -27 20 -31 39 -4 17 -14 35 -22
40 -9 4 -28 28 -42 53 -55 94 -93 148 -105 148 -6 0 -27 11 -46 24 -19 13 -51
27 -70 31 -19 4 -55 16 -80 28 -25 11 -51 20 -57 20 -7 0 -13 4 -13 8 0 4 -10
11 -22 14 -13 4 -39 19 -58 34 -19 14 -37 26 -40 26 -8 1 -64 38 -87 59 -42
37 -23 7 75 -116 269 -339 397 -528 537 -795 23 -43 87 -117 124 -143 26 -18
27 -30 4 -30 -13 0 -15 -2 -5 -8 7 -5 17 -34 22 -64 11 -69 55 -165 78 -171
16 -4 16 -5 0 -6 -15 -1 -15 -5 -6 -33 6 -18 18 -43 25 -55 8 -12 16 -30 18
-40 2 -10 4 -19 4 -21 1 -1 29 16 64 38 l62 42 -44 -39 c-93 -79 -89 -76 -61
-62 14 7 65 38 114 71 l89 58 18 -22 c23 -25 22 -27 -72 -104 -38 -31 -66 -60
-63 -65 3 -5 -2 -6 -11 -3 -10 4 -15 2 -13 -6 2 -7 -35 -39 -82 -71 -47 -32
-90 -62 -95 -67 -6 -5 -19 -66 -29 -138 -11 -71 -20 -131 -22 -133 -14 -17
-535 484 -697 671 l-58 67 36 83 c49 110 124 249 207 382 38 60 67 115 64 123
-8 21 -105 161 -116 168 -6 4 -10 -5 -10 -20 0 -39 -72 -186 -123 -252 -95
-123 -119 -143 -166 -143 -26 0 -52 7 -69 20 -15 11 -43 21 -64 22 -20 2 -34
6 -31 11 2 4 0 7 -6 7 -6 0 -27 15 -48 33 -40 35 -39 32 24 -62 47 -71 52 -84
26 -79 -26 5 -57 -56 -47 -91 4 -14 8 -31 9 -38 0 -7 30 -50 67 -96 248 -312
710 -767 993 -977 81 -61 195 -134 200 -129 2 3 -52 49 -121 103 l-125 99 23
25 c13 14 17 22 9 17 -9 -5 -12 -4 -7 3 4 7 2 12 -4 12 -6 0 -8 4 -5 10 4 6
10 6 18 0 22 -19 162 -116 197 -137 19 -11 63 -33 96 -48 l62 -27 89 61 c49
34 94 61 100 61 6 0 13 -9 16 -19 4 -17 -8 -26 -68 -55 -40 -19 -85 -38 -99
-42 -14 -3 -23 -10 -20 -15 16 -26 196 -97 202 -79 2 5 10 10 17 10 8 0 18 7
22 15 7 13 13 10 31 -15 l23 -30 -23 -1 c-22 0 -22 -1 -3 -9 11 -5 32 -9 47
-9 l28 -1 -38 39 c-52 54 -97 151 -132 284 -22 84 -29 101 -28 69 4 -118 -178
-176 -282 -90 -38 31 -63 90 -62 143 2 78 34 130 101 165 51 25 112 24 173 -5
33 -16 36 -22 51 -94 16 -75 16 -64 -3 99 -12 106 -12 252 -1 304 7 28 24 51
68 89 32 28 105 97 163 152 490 471 1070 858 1452 969 l83 24 -1 118 c-1 145
-16 251 -55 392 -117 417 -426 737 -854 885 -136 47 -174 54 -106 21z m386
-174 c210 -118 413 -352 506 -584 39 -100 42 -122 18 -168 -24 -47 -200 -167
-256 -175 -36 -4 -41 -1 -91 54 -103 114 -123 138 -128 161 -4 12 -10 22 -14
22 -5 0 -12 25 -15 55 -4 30 -11 58 -16 61 -5 3 -9 26 -9 52 0 69 -26 228 -49
302 -12 36 -21 66 -21 67 0 1 7 0 16 -4 13 -5 15 -3 6 13 -14 28 -38 83 -57
134 -9 25 -22 49 -28 53 -7 5 -1 7 16 4 15 -2 27 0 27 6 0 6 8 3 18 -5 9 -8
44 -30 77 -48z m-880 -1777 c43 -22 65 -43 85 -83 l18 -36 -97 -109 c-54 -61
-106 -117 -117 -125 -10 -8 2 8 27 37 43 49 63 103 37 103 -5 0 -7 8 -3 18 3
11 -1 34 -9 53 -9 19 -15 28 -16 22 0 -25 -15 -12 -43 36 l-27 50 20 14 c18
13 19 15 5 21 -9 3 -14 2 -11 -3 3 -5 -1 -14 -10 -22 -12 -10 -18 -9 -31 4
-14 14 -14 17 -2 21 8 2 28 9 44 15 35 12 87 6 130 -16z m-215 -456 c0 -2 -10
-12 -22 -23 l-23 -19 19 23 c18 21 26 27 26 19z m-80 -70 c0 -2 -10 -12 -22
-23 l-23 -19 19 23 c18 21 26 27 26 19z"/>
<path d="M3711 2694 c0 -11 3 -14 6 -6 3 7 2 16 -1 19 -3 4 -6 -2 -5 -13z"/>
<path d="M3768 2587 c8 -9 11 -21 7 -27 -3 -5 -1 -10 4 -10 6 0 11 7 11 16 0
9 5 12 13 8 7 -4 9 -3 4 2 -5 5 -12 9 -15 9 -4 0 -14 4 -22 10 -13 7 -13 6 -2
-8z"/>
<path d="M4450 4211 c0 -6 0 -14 1 -18 0 -4 -8 -10 -18 -14 -12 -5 -6 -8 20
-8 34 -1 38 1 35 21 -3 23 -38 39 -38 19z"/>
<path d="M4388 4163 c7 -3 16 -2 19 1 4 3 -2 6 -13 5 -11 0 -14 -3 -6 -6z"/>
<path d="M2830 4021 c-59 -19 -92 -43 -111 -84 -20 -45 -25 -92 -9 -82 6 3 10
1 10 -5 0 -6 4 -9 9 -6 13 9 152 37 184 38 15 1 29 4 31 7 2 3 42 5 88 3 105
-3 108 -3 108 -15 0 -6 3 -7 7 -4 3 4 13 2 20 -5 19 -16 -18 45 -65 107 l-38
50 -104 2 c-58 1 -116 -2 -130 -6z"/>
<path d="M1896 3838 c10 -13 40 -45 66 -73 111 -119 138 -150 138 -162 0 -7 5
-12 12 -10 7 1 17 -8 23 -20 5 -13 13 -23 17 -23 4 0 14 -13 23 -30 9 -16 23
-30 33 -30 10 0 13 3 7 8 -6 4 -23 25 -38 48 -15 22 -38 51 -50 63 -12 12 -51
55 -87 95 -36 41 -71 74 -77 75 -7 1 -12 4 -11 9 4 10 -53 72 -65 72 -6 0 -2
-10 9 -22z"/>
<path d="M1958 3518 c-93 -130 -91 -125 -76 -134 7 -4 10 -4 7 -1 -3 4 18 32
45 63 28 32 65 73 82 92 54 61 37 6 -29 -92 -32 -48 -60 -98 -62 -110 -1 -11
-32 -72 -69 -135 -36 -63 -68 -123 -72 -133 -5 -16 46 -120 64 -132 4 -2 7 35
8 82 0 87 27 202 46 202 5 0 6 5 3 10 -3 6 -1 10 4 10 6 0 11 5 11 11 0 6 9
23 19 37 10 15 19 31 20 35 0 9 35 47 99 112 24 25 41 48 38 54 -3 5 2 8 11 6
27 -4 34 4 22 26 -14 28 -79 99 -90 99 -4 0 -41 -46 -81 -102z"/>
<path d="M2210 3474 c0 -4 10 -16 23 -28 12 -12 33 -36 46 -54 13 -17 28 -29
33 -26 5 3 1 13 -10 22 -10 10 -31 34 -46 55 -26 33 -46 47 -46 31z"/>
<path d="M2331 3333 c6 -10 23 -27 37 -37 l26 -20 -20 26 c-10 14 -27 31 -37
37 -15 10 -16 9 -6 -6z"/>
<path d="M2380 3261 c0 -13 29 -35 37 -27 3 3 1 6 -5 6 -7 0 -12 7 -12 15 0 8
-4 15 -10 15 -5 0 -10 -4 -10 -9z"/>
<path d="M2446 3175 c34 -45 41 -45 12 0 -13 19 -27 35 -31 35 -4 0 4 -16 19
-35z"/>
<path d="M5261 3044 c0 -11 3 -14 6 -6 3 7 2 16 -1 19 -3 4 -6 -2 -5 -13z"/>
<path d="M1866 2897 c3 -10 9 -15 12 -12 3 3 0 11 -7 18 -10 9 -11 8 -5 -6z"/>
<path d="M1940 2781 c0 -6 4 -13 10 -16 6 -3 7 1 4 9 -7 18 -14 21 -14 7z"/>
<path d="M5157 2733 c-4 -3 -7 -13 -7 -22 1 -13 3 -13 11 2 11 19 8 33 -4 20z"/>
<path d="M5086 2565 c-9 -26 -7 -32 5 -12 6 10 9 21 6 23 -2 3 -7 -2 -11 -11z"/>
<path d="M3830 1199 c-39 -21 -21 -25 25 -5 16 6 25 15 20 18 -6 3 -26 -3 -45
-13z"/>
<path d="M3495 634 c-75 -38 -292 -114 -324 -114 -11 0 -23 -5 -27 -11 -4 -7
0 -9 12 -5 11 3 40 10 66 16 71 15 193 62 283 108 44 23 76 41 70 41 -5 0 -41
-16 -80 -35z"/>
<path d="M2645 520 c11 -5 31 -8 45 -8 l25 0 -25 8 c-14 4 -34 8 -45 8 l-20 1
20 -9z"/>
<path d="M2728 503 c7 -3 16 -2 19 1 4 3 -2 6 -13 5 -11 0 -14 -3 -6 -6z"/>
<path d="M2827 493 c18 -2 50 -2 70 0 21 2 7 4 -32 4 -38 0 -55 -2 -38 -4z"/>
<path d="M3028 493 c7 -3 16 -2 19 1 4 3 -2 6 -13 5 -11 0 -14 -3 -6 -6z"/>
</g>
</svg>
